<svg width="22" height="25" viewBox="0 0 22 25" fill="none" xmlns="http://www.w3.org/2000/svg">
<path d="M14.9851 10.4514C13.8079 11.6286 12.3762 12.2171 10.69 12.2171C9.00378 12.2171 7.55618 11.6286 6.34719 10.4514C5.17001 9.2424 4.58143 7.79479 4.58143 6.10857C4.58143 4.42235 5.17001 2.99065 6.34719 1.81348C7.55618 0.604494 9.00378 0 10.69 0C12.3762 0 13.8079 0.604494 14.9851 1.81348C16.1941 2.99065 16.7986 4.42235 16.7986 6.10857C16.7986 7.79479 16.1941 9.2424 14.9851 10.4514ZM14.9851 13.7443C16.7349 13.7443 18.2303 14.3806 19.4711 15.6532C20.7437 16.894 21.38 18.3893 21.38 20.1392V22.1436C21.38 22.7799 21.1573 23.3207 20.7119 23.7662C20.2665 24.2116 19.7256 24.4343 19.0893 24.4343H2.29071C1.6544 24.4343 1.11354 24.2116 0.668125 23.7662C0.222708 23.3207 0 22.7799 0 22.1436V20.1392C0 18.3893 0.620402 16.894 1.86121 15.6532C3.13382 14.3806 4.64506 13.7443 6.39491 13.7443H7.2062C8.31975 14.2533 9.48101 14.5079 10.69 14.5079C11.899 14.5079 13.0603 14.2533 14.1738 13.7443H14.9851Z" fill="#F26522"/>
</svg>
